:SAMPLES-PER-SECOND 30
:FULLY-SPECIFIED
:DEGREES
111
root  34.92071197 36.51975797 -14.58584643 11.17940903 8.461379051 3.889088631
lowerback  -7.996630669 2.90260005 3.032890558
upperback  -4.311039925 3.297790051 -4.506539822
thorax  0.4496569932 1.393329978 -6.119150162
lowerneck  -15.52400017 0.3868499994 2.184400082
upperneck  10.85050011 -0.9427779913 5.676620007
head  5.857950211 0.0142783327 1.354009986
lclavicle  0 -4.497500157e-015 -2.743230041e-014
lhumerus  -44.27080154 26.75650024 67.61759949
lradius  -0.4932982028 -6.507048965e-006 27.13500023
lwrist  4.824992743e-007 -3.790274832e-007 -31.88170052
lhand  -4.401264094e-031 -36.64989853 -10.69419956
lfingers  90 7.125020027 -90
lthumb  94.70286272 -25.53851019 100.8032285
rclavicle  0 -4.497500157e-015 -2.743230041e-014
rhumerus  54.94300079 1.47206986 -52.95819855
rradius  -5.16745672e-007 2.214343908e-008 70.92539978
rwrist  1.129822067e-006 0.001802438172 -174.2149963
rhand  -1.771065158e-031 4.517710209 -5.952439785
rfingers  -90 -7.125020027 -90
rthumb  -84.23601832 -9.903200934 -59.59040488
rfemur  -13.26978588 12.02534103 14.42117691
rtibia  -1.936430812 1.927175879 22.08943939
rfoot  -1.588027477 -15.82103729 -43.20378494
rtoes  4.12918766 19.58620463 -102.1534222
lfemur  -10.89147186 -20.87312889 -18.71948814
ltibia  3.655196667 2.167471409 14.00012398
lfoot  0.6615231037 -28.99284554 30.61616135
ltoes  -8.482834951 -18.17899878 -115.5500565
112
root  34.91957056 36.51947562 -14.5894764 11.19050694 8.656900406 3.933722496
lowerback  -7.973449707 2.947629929 3.067779303
upperback  -4.331820011 3.355499983 -4.518690109
thorax  0.4252929986 1.420670033 -6.147830009
lowerneck  -15.55809975 0.2851639986 2.112279892
upperneck  10.86999989 -1.076169968 5.734829903
head  5.873189926 -0.04846393317 1.37172997
lclavicle  0 -4.497500157e-015 -2.743230041e-014
lhumerus  -44.25559998 26.89150238 67.52680206
lradius  -0.4933621585 -6.507048965e-006 27.01779938
lwrist  4.824992743e-007 -3.790274832e-007 -32.18030167
lhand  -4.402459248e-031 -36.67079926 -10.71790028
lfingers  90 7.125020027 -90
lthumb  94.71760771 -25.56101271 100.8277603
rclavicle  0 -4.497500157e-015 -2.743230041e-014
rhumerus  55.82659912 1.313230157 -52.90679932
rradius  -5.16745672e-007 2.214343908e-008 70.02980042
rwrist  1.129822067e-006 0.001802438172 -174.026001
rhand  -0 4.259829998 -5.772789955
rfingers  -90 -7.125020027 -90
rthumb  -84.20963152 -10.04506132 -59.82698361
rfemur  -13.28003979 11.97475052 14.42871857
rtibia  -1.988989592 1.958411455 22.1596508
rfoot  -1.635874629 -15.7059803 -43.32501602
rtoes  4.137385143 19.58453966 -102.1778769
lfemur  -10.9204998 -20.9650383 -18.74139214
ltibia  3.667459011 2.170904398 14.00945187
lfoot  0.6601099372 -29.0105381 30.51764297
ltoes  -8.471400572 -18.18418778 -115.5134113
113
root  34.91624246 36.51985108 -14.59577515 11.22288322 8.878018379 3.960466623
lowerback  -7.976890087 2.97439003 3.077950239
upperback  -4.31938982 3.392580032 -4.540679932
thorax  0.4467099905 1.440459967 -6.172929764
lowerneck  -15.63080025 0.194133997 2.096950054
upperneck  10.88570023 -1.204550028 5.761360168
head  5.893320084 -0.1083320081 1.37074995
lclavicle  0 -4.497500157e-015 -2.743230041e-014
lhumerus  -44.19670105 27.04080009 67.44680023
lradius  -0.4934262931 -6.507048965e-006 26.90369987
lwrist  4.824992743e-007 -3.790274832e-007 -32.34400177
lhand  -0 -36.64609909 -10.67959976
lfingers  90 7.125020027 -90
lthumb  94.69805158 -25.52427044 100.7978726
rclavicle  0 -4.497500157e-015 -2.743230041e-014
rhumerus  56.70429993 1.156660438 -52.7262001
rradius  -5.16745672e-007 2.214343908e-008 69.15989685
rwrist  1.129822067e-006 0.001802438172 -173.6679993
rhand  -1.770169652e-031 4.134659767 -5.91203022
rfingers  -90 -7.125020027 -90
rthumb  -84.31228334 -9.918152404 -59.96177989
rfemur  -13.33526897 11.87982464 14.46592617
rtibia  -2.044189215 1.998288155 22.25879097
rfoot  -1.687044263 -15.60755157 -43.40755081
rtoes  4.145581786 19.5828714 -102.2023311
lfemur  -11.03035831 -21.10266304 -18.69787788
ltibia  3.644165277 2.185468912 14.08284664
lfoot  0.6618343592 -29.05987358 30.43625641
ltoes  -8.464479844 -18.18732424 -115.4912365
114
root  34.91251187 36.51904309 -14.60297051 11.24390316 9.072147369 3.975051165
lowerback  -7.985300064 3.013989925 3.101360321
upperback  -4.327929974 3.442090034 -4.593440056
thorax  0.4532890022 1.463649988 -6.237360001
lowerneck  -15.6583004 0.1295060068 2.14267993
upperneck  10.90880013 -1.311289907 5.788330078
head  5.907770157 -0.1563090533 1.361819983
lclavicle  0 -4.497500157e-015 -2.743230041e-014
lhumerus  -44.20449829 27.02930069 67.38950348
lradius  -0.4934908748 -6.507048965e-006 26.88290215
lwrist  4.824992743e-007 -3.790274832e-007 -32.46569824
lhand  -4.400852762e-031 -36.6427002 -10.64449978
lfingers  90 7.125020027 -90
lthumb  94.68919206 -25.48996077 100.791116
rclavicle  0 -4.497500157e-015 -2.743230041e-014
rhumerus  57.64820099 1.073580146 -52.81309891
rradius  -5.16745672e-007 2.214343908e-008 68.16020203
rwrist  1.129822067e-006 0.001802438172 -173.1450043
rhand  -0 4.397830009 -5.803209782
rfingers  -90 -7.125020027 -90
rthumb  -84.18997383 -10.02578989 -59.69453654
rfemur  -13.39046764 11.79261398 14.51127815
rtibia  -2.09612751 2.049334288 22.3569603
rfoot  -1.729401946 -15.49627113 -43.46721649
rtoes  4.164633308 19.57898044 -102.2591779
lfemur  -11.10367203 -21.19689369 -18.6507988
ltibia  3.634678125 2.225147724 14.12551212
lfoot  0.683624208 -29.15434647 30.39135551
ltoes  -8.480561392 -18.18003123 -115.5427693
